<?xml version="1.0" encoding="UTF-8"?>
<svg id="Ebene_1" data-name="Ebene 1" xmlns="http://www.w3.org/2000/svg" viewBox="0 0 1024 1024">
  <defs>
    <style>
      .cls-1 {
        fill: none;
        stroke: #1d1d1b;
        stroke-linecap: round;
        stroke-linejoin: round;
        stroke-width: 80px;
      }
    </style>
  </defs>
  <path class="cls-1" d="M553.8,637.35c-11.2,11.65-26.35,18.7-42.48,19.68-34.59,2.12-97.08,9.08-128.31,31.96-35.61,25.15-58.64,64.28-96.09,87.2-76.4,50.7-186.67,18.11-223.02-66.08-26.59-58.43-6.62-123.48,15.82-179.97,27.91-70.94,61.02-139.17,102.91-202.5,36-56.02,89.58-103.98,155.8-103.98h169.85c17.55,0,34.35,7.15,46.52,19.81l145.8,151.7c23.63,24.59,23.63,64.82,0,89.41l-146.81,152.75ZM535.77,656.11"/>
  <g>
    <line class="cls-1" x1="370.65" y1="354.25" x2="370.65" y2="508.58"/>
    <line class="cls-1" x1="447.81" y1="431.42" x2="293.48" y2="431.42"/>
  </g>
  <path class="cls-1" d="M885.74,223.67h0c116.08,120.78,116.08,311.66,0,432.44h0"/>
  <path class="cls-1" d="M792.77,309.43c70.04,72.87,70.04,188.05,0,260.93"/>
</svg>