<?xml version="1.0" encoding="UTF-8"?>
<svg id="Ebene_1" data-name="Ebene 1" xmlns="http://www.w3.org/2000/svg" viewBox="0 0 1024 1024">
  <defs>
    <style>
      .cls-1 {
        fill: #1d1d1b;
      }
    </style>
  </defs>
  <path class="cls-1" d="M205.59,840.36c-18.86,0-37.95-2.74-56.71-8.31-55.2-16.39-99.48-54.91-121.55-105.72-32.16-71.09-10.39-146.48,15.18-210.88,31.65-80.45,66.53-149.03,106.62-209.66,50.68-78.76,117.9-122.12,189.3-122.12h169.85c28.29,0,55.75,11.7,75.36,32.09l145.8,151.7c38.38,39.94,38.38,104.91,0,144.85l-146.81,152.75h0c-18.23,18.96-42.69,30.29-68.88,31.89-49.77,3.04-90.81,12.36-107.11,24.3-.19.14-.38.27-.57.41-13.24,9.35-25.33,22.2-38.12,35.8-16.51,17.55-35.21,37.43-59.53,52.46-30.54,20.09-66.24,30.43-102.84,30.43ZM338.44,263.67c-58.43,0-101.61,53.63-122.15,85.6-.1.15-.19.3-.29.45-37.03,55.97-69.43,119.78-99.05,195.07-.02.04-.03.08-.05.12-20.38,51.33-36.5,104.86-16.58,148.63.11.24.21.47.31.71,12.59,29.16,38.48,51.43,71.03,61.1,32.63,9.69,66.58,5.14,93.15-12.49.41-.27.82-.53,1.24-.79,15.48-9.47,29.16-24.02,43.65-39.42,14.88-15.82,30.27-32.18,49.98-46.15,37.55-27.31,101.83-36.5,149.2-39.4,6.09-.37,11.81-3.03,16.08-7.47l146.81-152.75c8.7-9.05,8.7-24.93,0-33.98l-145.8-151.7c-4.6-4.78-11.04-7.53-17.68-7.53h-169.85ZM553.8,637.35h0,0Z"/>
  <g>
    <path class="cls-1" d="M370.65,548.58c-22.09,0-40-17.91-40-40v-154.33c0-22.09,17.91-40,40-40s40,17.91,40,40v154.33c0,22.09-17.91,40-40,40Z"/>
    <path class="cls-1" d="M447.81,471.42h-154.33c-22.09,0-40-17.91-40-40s17.91-40,40-40h154.33c22.09,0,40,17.91,40,40s-17.91,40-40,40Z"/>
  </g>
  <path class="cls-1" d="M885.74,696.11c-9.97,0-19.96-3.7-27.71-11.16-15.93-15.31-16.43-40.63-1.12-56.56,48.95-50.92,75.9-117.87,75.9-188.5s-26.95-137.58-75.9-188.5c-15.31-15.93-14.81-41.25,1.12-56.56,15.93-15.31,41.25-14.81,56.56,1.12,63.34,65.9,98.22,152.53,98.22,243.94s-34.88,178.04-98.22,243.94c-7.85,8.17-18.34,12.28-28.84,12.28Z"/>
  <path class="cls-1" d="M792.77,610.36c-9.97,0-19.96-3.7-27.71-11.16-15.93-15.31-16.43-40.63-1.12-56.56,26.68-27.76,41.37-64.25,41.37-102.75s-14.69-74.99-41.37-102.75c-15.31-15.93-14.81-41.25,1.12-56.56s41.25-14.81,56.56,1.12c41.07,42.73,63.69,98.91,63.69,158.18s-22.62,115.45-63.69,158.18c-7.85,8.17-18.34,12.28-28.84,12.28Z"/>
</svg>